<svg width="1281" height="542" viewBox="0 0 1281 542" fill="none" xmlns="http://www.w3.org/2000/svg">
<g opacity="0.5">
<mask id="mask0_2963_294" style="mask-type:alpha" maskUnits="userSpaceOnUse" x="0" y="0" width="1281" height="542">
<rect x="0.5" y="0.5" width="1280" height="541" fill="#D9D9D9" stroke="#E11628"/>
</mask>
<g mask="url(#mask0_2963_294)">
<path opacity="0.685185" d="M1305.43 362.544L1423.88 529.19C1446.32 560.765 1490.11 568.168 1521.69 545.727L1688.33 427.283C1719.91 404.842 1727.32 361.053 1704.87 329.477L1586.42 162.831C1563.98 131.257 1520.19 123.852 1488.62 146.295L1321.97 264.738C1290.4 287.18 1282.99 330.97 1305.43 362.544Z" stroke="#E11628" stroke-width="1.35658"/>
<path opacity="0.703704" d="M1279.72 343.059L1383.19 519.395C1402.79 552.805 1445.77 563.996 1479.18 544.392L1655.52 440.923C1688.93 421.318 1700.12 378.341 1680.51 344.931L1577.05 168.595C1557.44 135.185 1514.47 123.992 1481.05 143.597L1304.72 247.067C1271.31 266.672 1260.12 309.649 1279.72 343.059Z" stroke="#E11628" stroke-width="1.35658"/>
<path opacity="0.722222" d="M1255.53 323.585L1343.24 508.268C1359.86 543.261 1401.7 558.156 1436.69 541.537L1621.37 453.829C1656.36 437.213 1671.26 395.374 1654.64 360.381L1566.93 175.7C1550.32 140.707 1508.48 125.812 1473.49 142.431L1288.8 230.137C1253.81 246.755 1238.92 288.594 1255.53 323.585Z" stroke="#E11628" stroke-width="1.35658"/>
<path opacity="0.740741" d="M1232.86 304.246L1304.14 495.871C1317.64 532.177 1358.02 550.662 1394.33 537.158L1585.96 465.881C1622.26 452.376 1640.75 411.994 1627.24 375.688L1555.97 184.064C1542.46 147.757 1502.08 129.272 1465.77 142.778L1274.15 214.054C1237.84 227.558 1219.36 267.94 1232.86 304.246Z" stroke="#E11628" stroke-width="1.35658"/>
<path opacity="0.759259" d="M1211.7 285.19L1266 482.296C1276.29 519.642 1314.91 541.575 1352.26 531.287L1549.36 476.982C1586.71 466.694 1608.64 428.077 1598.35 390.73L1544.05 193.625C1533.76 156.278 1495.14 134.345 1457.8 144.634L1260.69 198.938C1223.34 209.227 1201.41 247.843 1211.7 285.19Z" stroke="#E11628" stroke-width="1.35658"/>
<path opacity="0.777778" d="M1192 266.522L1228.92 467.612C1235.91 505.713 1272.47 530.929 1310.57 523.934L1511.66 487.015C1549.76 480.02 1574.98 443.461 1567.98 405.362L1531.06 204.273C1524.07 166.172 1487.51 140.956 1449.41 147.95L1248.32 184.87C1210.22 191.865 1185 228.421 1192 266.522Z" stroke="#E11628" stroke-width="1.35658"/>
<path opacity="0.796296" d="M1173.73 248.393L1192.98 451.935C1196.63 490.501 1230.85 518.807 1269.42 515.159L1472.96 495.908C1511.53 492.258 1539.83 458.038 1536.19 419.474L1516.93 215.932C1513.28 177.366 1479.06 149.06 1440.5 152.707L1236.96 171.959C1198.39 175.606 1170.08 209.827 1173.73 248.393Z" stroke="#E11628" stroke-width="1.35658"/>
<path opacity="0.814815" d="M1156.85 230.906L1158.28 435.351C1158.56 474.089 1190.18 505.27 1228.92 504.996L1433.36 503.557C1472.1 503.285 1503.28 471.661 1503.01 432.925L1501.57 228.48C1501.29 189.743 1469.67 158.562 1430.93 158.834L1226.49 160.274C1187.75 160.546 1156.57 192.17 1156.85 230.906Z" stroke="#E11628" stroke-width="1.35658"/>
<path opacity="0.833333" d="M1141.28 214.197L1124.89 417.99C1121.79 456.602 1150.57 490.422 1189.19 493.526L1392.98 509.911C1431.59 513.015 1465.41 484.229 1468.51 445.617L1484.9 241.824C1488 203.212 1459.22 169.393 1420.61 166.288L1216.81 149.903C1178.2 146.799 1144.38 175.585 1141.28 214.197Z" stroke="#E11628" stroke-width="1.35658"/>
<path opacity="0.851852" d="M1126.96 198.367L1092.87 399.956C1086.41 438.153 1112.14 474.351 1150.34 480.81L1351.93 514.894C1390.12 521.352 1426.32 495.624 1432.78 457.429L1466.86 255.839C1473.32 217.642 1447.59 181.445 1409.4 174.986L1207.81 140.901C1169.61 134.444 1133.41 160.172 1126.96 198.367Z" stroke="#E11628" stroke-width="1.35658"/>
<path opacity="0.87037" d="M1113.79 183.516L1062.27 381.368C1052.51 418.856 1074.98 457.159 1112.47 466.921L1310.32 518.445C1347.81 528.209 1386.11 505.732 1395.87 468.246L1447.4 270.394C1457.16 232.906 1434.68 194.603 1397.2 184.841L1199.35 133.318C1161.86 123.554 1123.55 146.029 1113.79 183.516Z" stroke="#E11628" stroke-width="1.35658"/>
<path opacity="0.888889" d="M1101.71 169.755L1033.13 362.364C1020.14 398.858 1039.19 438.974 1075.69 451.966L1268.3 520.538C1304.79 533.53 1344.91 514.479 1357.9 477.985L1426.47 285.378C1439.46 248.884 1420.41 208.767 1383.92 195.774L1191.31 127.202C1154.82 114.21 1114.7 133.261 1101.71 169.755Z" stroke="#E11628" stroke-width="1.35658"/>
<path opacity="0.907407" d="M1090.59 157.162L1005.49 343.06C989.368 378.283 1004.85 419.908 1040.07 436.031L1225.97 521.128C1261.2 537.252 1302.82 521.77 1318.94 486.547L1404.04 300.649C1420.16 265.426 1404.68 223.801 1369.46 207.678L1183.56 122.58C1148.34 106.456 1106.71 121.939 1090.59 157.162Z" stroke="#E11628" stroke-width="1.35658"/>
<path opacity="0.925926" d="M1080.35 145.83L979.376 323.605C960.243 357.288 972.039 400.104 1005.72 419.235L1183.5 520.211C1217.18 539.344 1260 527.548 1279.13 493.865L1380.1 316.09C1399.24 282.408 1387.44 239.592 1353.76 220.461L1175.98 119.484C1142.3 100.351 1099.48 112.147 1080.35 145.83Z" stroke="#E11628" stroke-width="1.35658"/>
<path opacity="0.944444" d="M1070.86 135.812L954.776 304.11C932.78 335.999 940.801 379.678 972.688 401.673L1140.99 517.76C1172.87 539.754 1216.55 531.735 1238.55 499.848L1354.63 331.55C1376.63 299.662 1368.61 255.983 1336.72 233.987L1168.43 117.9C1136.54 95.9064 1092.86 103.926 1070.86 135.812Z" stroke="#E11628" stroke-width="1.35658"/>
<path opacity="0.962963" d="M1062.01 127.185L931.702 284.723C907.013 314.573 911.194 358.788 941.044 383.477L1098.58 513.789C1128.43 538.48 1172.64 534.298 1197.34 504.449L1327.65 346.909C1352.34 317.06 1348.16 272.847 1318.31 248.156L1160.77 117.845C1130.92 93.1542 1086.71 97.3362 1062.01 127.185Z" stroke="#E11628" stroke-width="1.35658"/>
<path opacity="0.981481" d="M1053.68 119.992L910.132 265.574C882.934 293.159 883.246 337.568 910.83 364.765L1056.41 508.313C1084 535.51 1128.41 535.199 1155.6 507.614L1299.15 362.032C1326.35 334.449 1326.04 290.039 1298.45 262.84L1152.87 119.295C1125.29 92.0956 1080.88 92.4086 1053.68 119.992Z" stroke="#E11628" stroke-width="1.35658"/>
<path d="M1045.74 114.278L890.047 246.795C860.548 271.903 856.989 316.171 882.098 345.67L1014.61 501.359C1039.72 530.858 1083.99 534.417 1113.49 509.309L1269.18 376.791C1298.68 351.683 1302.24 307.415 1277.13 277.916L1144.61 122.227C1119.5 92.7279 1075.24 89.1688 1045.74 114.278Z" stroke="#E11628" stroke-width="1.35658"/>
<path opacity="0.0185185" d="M9.20501 193.142L152.752 47.56C179.951 19.9753 224.359 19.6638 251.944 46.861L397.526 190.409C425.109 217.606 425.422 262.015 398.223 289.6L254.677 435.182C227.478 462.765 183.068 463.078 155.486 435.879L9.90319 292.334C-17.6804 265.135 -17.9929 220.725 9.20501 193.142Z" stroke="#E11628" stroke-width="1.35658"/>
<path opacity="0.037037" d="M30.773 212.29L161.085 54.7518C185.776 24.9008 229.989 20.7205 259.839 45.4098L417.377 175.722C447.226 200.413 451.408 244.626 426.719 274.476L296.406 432.015C271.715 461.865 227.502 466.045 197.653 441.356L40.1138 311.043C10.2646 286.352 6.08247 242.139 30.773 212.29Z" stroke="#E11628" stroke-width="1.35658"/>
<path opacity="0.0555556" d="M53.8467 231.676L169.933 63.378C191.929 31.4896 235.608 23.4702 267.496 45.466L435.792 161.553C467.681 183.547 475.7 227.228 453.704 259.114L337.619 427.412C315.623 459.3 271.943 467.32 240.056 445.324L71.7589 329.237C39.8712 307.243 31.8518 263.563 53.8467 231.676Z" stroke="#E11628" stroke-width="1.35658"/>
<path opacity="0.0740741" d="M78.441 251.169L179.418 73.3936C198.549 39.7109 241.365 27.9148 275.047 47.046L452.822 148.022C486.505 167.155 498.301 209.971 479.17 243.654L378.194 421.429C359.061 455.111 316.245 466.908 282.562 447.775L104.789 346.799C71.1048 327.667 59.3089 284.851 78.441 251.169Z" stroke="#E11628" stroke-width="1.35658"/>
<path opacity="0.0925926" d="M104.567 270.625L189.664 84.7276C205.789 49.5045 247.412 34.0229 282.635 50.1462L468.535 135.244C503.756 151.367 519.24 192.992 503.116 228.215L418.017 414.113C401.894 449.336 360.269 464.817 325.048 448.694L139.148 363.597C103.927 347.473 88.4433 305.849 104.567 270.625Z" stroke="#E11628" stroke-width="1.35658"/>
<path opacity="0.111111" d="M132.199 289.929L200.77 97.3208C213.764 60.827 253.88 41.7754 290.374 54.7675L482.982 123.34C519.476 136.332 538.527 176.45 525.534 212.942L456.963 405.55C443.971 442.044 403.853 461.096 367.359 448.104L174.752 379.531C138.258 366.539 119.207 326.423 132.199 289.929Z" stroke="#E11628" stroke-width="1.35658"/>
<path opacity="0.12963" d="M161.337 308.935L212.862 111.083C222.624 73.5956 260.927 51.1204 298.415 60.8825L496.267 112.406C533.752 122.17 556.229 160.473 546.466 197.959L494.942 395.811C485.18 433.298 446.877 455.774 409.389 446.011L211.537 394.488C174.05 384.726 151.574 346.422 161.337 308.935Z" stroke="#E11628" stroke-width="1.35658"/>
<path opacity="0.148148" d="M191.934 327.523L226.018 125.934C232.478 87.7371 268.675 62.0089 306.872 68.4682L508.461 102.551C546.656 109.01 572.384 145.209 565.927 183.404L531.843 384.994C525.383 423.189 489.186 448.917 450.989 442.459L249.4 408.375C211.205 401.917 185.477 365.718 191.934 327.523Z" stroke="#E11628" stroke-width="1.35658"/>
<path opacity="0.166667" d="M223.962 345.554L240.346 141.762C243.451 103.149 277.27 74.3634 315.883 77.4678L519.675 93.8526C558.288 96.9571 587.073 130.776 583.969 169.389L567.584 373.181C564.48 411.794 530.661 440.58 492.048 437.475L288.255 421.09C249.643 417.986 220.857 384.167 223.962 345.554Z" stroke="#E11628" stroke-width="1.35658"/>
<path opacity="0.185185" d="M257.359 362.918L255.919 158.473C255.645 119.735 286.828 88.1129 325.564 87.8389L530.01 86.4013C568.746 86.1273 600.37 117.308 600.642 156.046L602.081 360.49C602.353 399.228 571.172 430.852 532.436 431.124L327.991 432.563C289.255 432.835 257.631 401.654 257.359 362.918Z" stroke="#E11628" stroke-width="1.35658"/>
<path opacity="0.203704" d="M292.055 379.499L272.801 175.957C269.154 137.391 297.46 103.17 336.026 99.5229L539.568 80.2712C578.133 76.622 612.354 104.93 616.001 143.494L635.253 347.036C638.901 385.602 610.595 419.822 572.029 423.47L368.488 442.723C329.923 446.371 295.702 418.065 292.055 379.499Z" stroke="#E11628" stroke-width="1.35658"/>
<path opacity="0.222222" d="M327.988 395.177L291.07 194.088C284.074 155.987 309.29 119.43 347.391 112.435L548.48 75.5157C586.581 68.521 623.138 93.7371 630.135 131.838L667.052 332.928C674.047 371.027 648.831 407.585 610.73 414.58L409.642 451.5C371.541 458.495 334.983 433.278 327.988 395.177Z" stroke="#E11628" stroke-width="1.35658"/>
<path opacity="0.240741" d="M365.066 409.861L310.762 212.755C300.473 175.409 322.406 136.792 359.753 126.503L556.858 72.1991C594.205 61.9104 632.821 83.845 643.11 121.19L697.414 318.297C707.703 355.642 685.77 394.259 648.424 404.548L451.318 458.852C413.971 469.142 375.355 447.208 365.066 409.861Z" stroke="#E11628" stroke-width="1.35658"/>
<path opacity="0.259259" d="M403.211 423.437L331.934 231.813C318.43 195.506 336.915 155.125 373.221 141.621L564.846 70.344C601.152 56.8381 641.534 75.3233 655.038 111.63L726.314 303.254C739.82 339.561 721.335 379.942 685.028 393.448L493.404 464.725C457.098 478.229 416.716 459.744 403.211 423.437Z" stroke="#E11628" stroke-width="1.35658"/>
<path opacity="0.277778" d="M442.308 435.831L354.6 251.15C337.983 216.157 352.878 174.32 387.869 157.702L572.552 69.9942C607.543 53.3773 649.382 68.2724 666 103.264L753.706 287.946C770.325 322.939 755.43 364.776 720.437 381.394L535.756 469.1C500.763 485.719 458.925 470.824 442.308 435.831Z" stroke="#E11628" stroke-width="1.35658"/>
<path opacity="0.296296" d="M482.257 446.959L378.788 270.625C359.183 237.214 370.375 194.235 403.786 174.632L580.122 71.163C613.532 51.558 656.509 62.7501 676.114 96.1607L779.583 272.496C799.187 305.907 787.994 348.884 754.584 368.489L578.25 471.956C544.84 491.561 501.862 480.369 482.257 446.959Z" stroke="#E11628" stroke-width="1.35658"/>
<path opacity="0.314815" d="M522.944 456.754L404.499 290.108C382.058 258.532 389.461 214.743 421.036 192.302L587.682 73.8574C619.256 51.4166 663.046 58.819 685.488 90.3948L803.931 257.041C826.374 288.615 818.97 332.404 787.395 354.847L620.75 473.29C589.174 495.732 545.384 488.328 522.944 456.754Z" stroke="#E11628" stroke-width="1.35658"/>
<path opacity="0.333333" d="M564.249 465.152L431.732 309.463C406.623 279.964 410.182 235.696 439.681 210.588L595.37 78.0706C624.869 52.9618 669.137 56.5209 694.246 86.0202L826.763 241.709C851.87 271.208 848.311 315.476 818.813 340.585L663.124 473.102C633.625 498.21 589.357 494.651 564.249 465.152Z" stroke="#E11628" stroke-width="1.35658"/>
<path opacity="0.351852" d="M606.05 472.111L460.468 328.563C432.884 301.366 432.571 256.956 459.769 229.372L603.316 83.7895C630.515 56.2066 674.923 55.8934 702.508 83.0924L848.09 226.638C875.673 253.837 875.986 298.247 848.789 325.83L705.241 471.412C678.042 498.996 633.633 499.308 606.05 472.111Z" stroke="#E11628" stroke-width="1.35658"/>
<path opacity="0.37037" d="M648.217 477.585L490.677 347.272C460.828 322.583 456.646 278.368 481.337 248.519L611.649 90.9808C636.341 61.1315 680.554 56.9494 710.403 81.6405L867.941 211.951C897.79 236.642 901.972 280.855 877.283 310.705L746.97 468.244C722.279 498.094 678.066 502.276 648.217 477.585Z" stroke="#E11628" stroke-width="1.35658"/>
<path opacity="0.388889" d="M690.626 481.55L522.328 365.465C490.441 343.469 482.421 299.79 504.415 267.902L620.502 99.6056C642.496 67.7171 686.177 59.6977 718.065 81.6935L886.362 197.779C918.25 219.774 926.27 263.453 904.274 295.342L788.189 463.64C766.193 495.526 722.512 503.546 690.626 481.55Z" stroke="#E11628" stroke-width="1.35658"/>
<path opacity="0.407407" d="M733.133 483.999L555.358 383.023C521.676 363.892 509.88 321.076 529.011 287.393L629.987 109.618C649.12 75.9354 691.934 64.1391 725.619 83.2704L903.392 184.247C937.076 203.38 948.872 246.196 929.739 279.878L828.763 457.653C809.632 491.336 766.816 503.132 733.133 483.999Z" stroke="#E11628" stroke-width="1.35658"/>
<path opacity="0.425926" d="M775.608 484.925L589.711 399.828C554.487 383.705 539.004 342.08 555.129 306.857L640.227 120.959C656.35 85.7356 697.975 70.2524 733.198 86.3774L919.096 171.475C954.319 187.598 969.8 229.223 953.677 264.444L868.58 450.344C852.456 485.565 810.832 501.049 775.608 484.925Z" stroke="#E11628" stroke-width="1.35658"/>
<path opacity="0.444444" d="M817.932 484.327L625.324 415.755C588.83 402.763 569.778 362.647 582.77 326.153L651.343 133.545C664.335 97.0505 704.451 77.9989 740.945 90.991L933.553 159.564C970.047 172.556 989.099 212.673 976.107 249.166L907.534 441.774C894.542 478.268 854.426 497.319 817.932 484.327Z" stroke="#E11628" stroke-width="1.35658"/>
<path opacity="0.462963" d="M859.958 482.237L662.107 430.713C624.619 420.951 602.144 382.648 611.906 345.16L663.429 147.309C673.193 109.821 711.497 87.346 748.983 97.1079L946.834 148.633C984.322 158.395 1006.8 196.699 997.035 234.186L945.511 432.038C935.749 469.524 897.446 492.001 859.958 482.237Z" stroke="#E11628" stroke-width="1.35658"/>
<path opacity="0.481481" d="M901.562 478.681L699.972 444.596C661.777 438.137 636.047 401.939 642.507 363.743L676.591 162.153C683.048 123.958 719.248 98.2301 757.443 104.688L959.032 138.772C997.227 145.231 1022.96 181.429 1016.5 219.625L982.413 421.213C975.956 459.41 939.757 485.138 901.562 478.681Z" stroke="#E11628" stroke-width="1.35658"/>
<path opacity="0.5" d="M942.615 473.703L738.823 457.318C700.21 454.214 671.425 420.394 674.529 381.782L690.914 177.989C694.018 139.377 727.837 110.591 766.45 113.695L970.243 130.08C1008.86 133.185 1037.64 167.004 1034.54 205.616L1018.15 409.409C1015.05 448.022 981.228 476.807 942.615 473.703Z" stroke="#E11628" stroke-width="1.35658"/>
<path opacity="0.518519" d="M983.002 467.352L778.557 468.79C739.821 469.064 708.197 437.883 707.923 399.145L706.486 194.699C706.212 155.963 737.393 124.339 776.131 124.067L980.576 122.628C1019.31 122.356 1050.94 153.537 1051.21 192.273L1052.65 396.718C1052.92 435.454 1021.74 467.078 983.002 467.352Z" stroke="#E11628" stroke-width="1.35658"/>
<path opacity="0.537037" d="M1022.6 459.697L819.057 478.948C780.491 482.596 746.271 454.29 742.623 415.724L723.371 212.182C719.724 173.616 748.03 139.395 786.596 135.748L990.136 116.496C1028.7 112.849 1062.92 141.155 1066.57 179.721L1085.82 383.263C1089.47 421.827 1061.16 456.047 1022.6 459.697Z" stroke="#E11628" stroke-width="1.35658"/>
<path opacity="0.555556" d="M1061.3 450.807L860.207 487.726C822.106 494.721 785.549 469.505 778.554 431.404L741.635 230.314C734.64 192.213 759.856 155.657 797.957 148.662L999.045 111.742C1037.15 104.748 1073.7 129.964 1080.7 168.065L1117.62 369.154C1124.61 407.253 1099.4 443.812 1061.3 450.807Z" stroke="#E11628" stroke-width="1.35658"/>
<path opacity="0.574074" d="M1098.99 440.773L901.884 495.078C864.537 505.366 825.923 483.434 815.632 446.087L761.328 248.981C751.039 211.634 772.974 173.018 810.319 162.729L1007.43 108.425C1044.77 98.1361 1083.39 120.069 1093.68 157.416L1147.98 354.521C1158.27 391.868 1136.34 430.485 1098.99 440.773Z" stroke="#E11628" stroke-width="1.35658"/>
<path opacity="0.592593" d="M1135.59 429.675L943.97 500.952C907.663 514.456 867.282 495.971 853.778 459.664L782.501 268.04C768.995 231.734 787.481 191.352 823.787 177.848L1015.41 106.571C1051.72 93.0656 1092.1 111.551 1105.61 147.857L1176.88 339.482C1190.39 375.788 1171.9 416.17 1135.59 429.675Z" stroke="#E11628" stroke-width="1.35658"/>
<path opacity="0.611111" d="M1171.01 417.62L986.324 505.326C951.332 521.945 909.494 507.05 892.875 472.057L805.17 287.376C788.551 252.383 803.446 210.544 838.439 193.928L1023.12 106.22C1058.11 89.6014 1099.95 104.496 1116.57 139.489L1204.28 324.172C1220.89 359.163 1206 401.002 1171.01 417.62Z" stroke="#E11628" stroke-width="1.35658"/>
<path opacity="0.62963" d="M1205.15 404.717L1028.82 508.187C995.407 527.79 952.43 516.6 932.825 483.189L829.356 306.853C809.751 273.443 820.943 230.466 854.353 210.861L1030.69 107.392C1064.1 87.7884 1107.08 98.9787 1126.68 132.389L1230.15 308.725C1249.75 342.135 1238.56 385.112 1205.15 404.717Z" stroke="#E11628" stroke-width="1.35658"/>
<path opacity="0.648148" d="M1237.96 391.073L1071.32 509.518C1039.74 531.958 995.953 524.556 973.512 492.98L855.067 326.334C832.626 294.76 840.029 250.971 871.605 228.528L1038.25 110.086C1069.82 87.6431 1113.61 95.0473 1136.06 126.621L1254.5 293.267C1276.94 324.843 1269.54 368.632 1237.96 391.073Z" stroke="#E11628" stroke-width="1.35658"/>
<path opacity="0.666667" d="M1269.38 376.81L1113.69 509.327C1084.19 534.436 1039.93 530.876 1014.82 501.377L882.3 345.689C857.193 316.189 860.752 271.922 890.249 246.814L1045.94 114.296C1075.44 89.1887 1119.7 92.7478 1144.81 122.245L1277.33 277.936C1302.44 307.433 1298.88 351.701 1269.38 376.81Z" stroke="#E11628" stroke-width="1.35658"/>
<path opacity="0.685185" d="M1299.36 362.054L1155.81 507.636C1128.61 535.221 1084.2 535.532 1056.62 508.335L911.035 364.788C883.452 337.591 883.139 293.181 910.338 265.596L1053.88 120.014C1081.08 92.4311 1125.49 92.1182 1153.07 119.317L1298.66 262.863C1326.24 290.062 1326.55 334.471 1299.36 362.054Z" stroke="#E11628" stroke-width="1.35658"/>
<path opacity="0.703704" d="M1327.85 346.929L1197.54 504.467C1172.85 534.316 1128.63 538.498 1098.79 513.809L941.247 383.496C911.398 358.805 907.216 314.592 931.907 284.743L1062.22 127.203C1086.91 97.354 1131.12 93.1737 1160.97 117.863L1318.51 248.176C1348.36 272.867 1352.54 317.08 1327.85 346.929Z" stroke="#E11628" stroke-width="1.35658"/>
<path opacity="0.722222" d="M1354.84 331.571L1238.75 499.867C1216.76 531.756 1173.08 539.775 1141.19 517.779L972.894 401.694C941.007 379.699 932.988 336.018 954.982 304.131L1071.07 135.833C1093.06 103.945 1136.74 95.9252 1168.63 117.921L1336.93 234.008C1368.82 256.002 1376.84 299.683 1354.84 331.571Z" stroke="#E11628" stroke-width="1.35658"/>
<path opacity="0.740741" d="M1380.31 316.101L1279.33 493.876C1260.2 527.559 1217.39 539.355 1183.7 520.224L1005.93 419.247C972.245 400.115 960.449 357.299 979.582 323.616L1080.56 145.841C1099.69 112.158 1142.51 100.362 1176.19 119.495L1353.96 220.471C1387.65 239.603 1399.44 282.418 1380.31 316.101Z" stroke="#E11628" stroke-width="1.35658"/>
<path opacity="0.759259" d="M1404.25 300.671L1319.15 486.569C1303.03 521.792 1261.4 537.274 1226.18 521.15L1040.28 436.053C1005.06 419.929 989.574 378.305 1005.7 343.082L1090.8 157.184C1106.92 121.961 1148.54 106.479 1183.77 122.602L1369.67 207.7C1404.89 223.823 1420.37 265.448 1404.25 300.671Z" stroke="#E11628" stroke-width="1.35658"/>
<path opacity="0.777778" d="M1426.68 285.39L1358.11 477.998C1345.11 514.492 1305 533.544 1268.5 520.552L1075.9 451.979C1039.4 438.987 1020.35 398.869 1033.34 362.377L1101.91 169.769C1114.91 133.275 1155.02 114.224 1191.52 127.216L1384.12 195.788C1420.62 208.78 1439.67 248.896 1426.68 285.39Z" stroke="#E11628" stroke-width="1.35658"/>
<path opacity="0.796296" d="M1447.6 270.411L1396.08 468.263C1386.32 505.75 1348.01 528.226 1310.53 518.464L1112.68 466.94C1075.19 457.176 1052.71 418.873 1062.47 381.387L1114 183.535C1123.76 146.048 1162.07 123.573 1199.55 133.335L1397.4 184.858C1434.89 194.62 1457.37 232.924 1447.6 270.411Z" stroke="#E11628" stroke-width="1.35658"/>
<path opacity="0.814815" d="M1467.07 255.848L1432.99 457.438C1426.53 495.634 1390.33 521.363 1352.13 514.903L1150.54 480.821C1112.35 474.361 1086.62 438.162 1093.08 399.967L1127.16 198.378C1133.62 160.183 1169.82 134.455 1208.02 140.912L1409.6 174.997C1447.8 181.454 1473.53 217.653 1467.07 255.848Z" stroke="#E11628" stroke-width="1.35658"/>
<path opacity="0.833333" d="M1485.11 241.841L1468.72 445.633C1465.62 484.246 1431.8 513.032 1393.19 509.927L1189.39 493.543C1150.78 490.438 1121.99 456.619 1125.1 418.006L1141.48 214.214C1144.59 175.601 1178.41 146.816 1217.02 149.92L1420.81 166.305C1459.43 169.409 1488.21 203.228 1485.11 241.841Z" stroke="#E11628" stroke-width="1.35658"/>
<path opacity="0.851852" d="M1501.77 228.502L1503.21 432.947C1503.48 471.685 1472.3 503.307 1433.57 503.581L1229.12 505.019C1190.38 505.293 1158.76 474.112 1158.49 435.374L1157.05 230.93C1156.78 192.192 1187.96 160.569 1226.69 160.296L1431.14 158.857C1469.88 158.585 1501.5 189.766 1501.77 228.502Z" stroke="#E11628" stroke-width="1.35658"/>
<path opacity="0.87037" d="M1517.14 215.946L1536.39 419.488C1540.04 458.054 1511.73 492.275 1473.17 495.922L1269.62 515.174C1231.06 518.823 1196.84 490.515 1193.19 451.951L1173.94 248.409C1170.29 209.843 1198.6 175.623 1237.16 171.975L1440.71 152.722C1479.27 149.074 1513.49 177.38 1517.14 215.946Z" stroke="#E11628" stroke-width="1.35658"/>
<path opacity="0.888889" d="M1531.27 204.292L1568.19 405.382C1575.18 443.483 1549.97 480.04 1511.87 487.034L1310.78 523.954C1272.68 530.949 1236.12 505.733 1229.12 467.632L1192.2 266.542C1185.21 228.443 1210.43 191.884 1248.53 184.889L1449.62 147.97C1487.72 140.975 1524.27 166.191 1531.27 204.292Z" stroke="#E11628" stroke-width="1.35658"/>
<path opacity="0.907407" d="M1544.25 193.636L1598.56 390.742C1608.85 428.089 1586.91 466.705 1549.57 476.994L1352.46 531.298C1315.11 541.587 1276.5 519.652 1266.21 482.307L1211.9 285.2C1201.62 247.855 1223.55 209.238 1260.9 198.949L1458 144.645C1495.35 134.355 1533.96 156.289 1544.25 193.636Z" stroke="#E11628" stroke-width="1.35658"/>
<path opacity="0.925926" d="M1556.17 184.086L1627.45 375.71C1640.95 412.017 1622.47 452.398 1586.16 465.902L1394.54 537.179C1358.23 550.685 1317.85 532.2 1304.35 495.893L1233.07 304.269C1219.56 267.962 1238.05 227.581 1274.35 214.075L1465.98 142.8C1502.29 129.294 1542.67 147.779 1556.17 184.086Z" stroke="#E11628" stroke-width="1.35658"/>
<path opacity="0.944444" d="M1567.14 175.715L1654.85 360.396C1671.47 395.389 1656.57 437.226 1621.58 453.844L1436.9 541.55C1401.9 558.169 1360.07 543.274 1343.45 508.283L1255.74 323.6C1239.12 288.607 1254.02 246.77 1289.01 230.152L1473.69 142.446C1508.68 125.827 1550.52 140.722 1567.14 175.715Z" stroke="#E11628" stroke-width="1.35658"/>
<path opacity="0.962963" d="M1577.25 168.61L1680.72 344.944C1700.32 378.354 1689.13 421.333 1655.72 440.936L1479.38 544.405C1445.97 564.01 1403 552.818 1383.39 519.408L1279.92 343.072C1260.32 309.662 1271.51 266.684 1304.92 247.08L1481.25 143.612C1514.67 124.007 1557.64 135.199 1577.25 168.61Z" stroke="#E11628" stroke-width="1.35658"/>
<path opacity="0.981481" d="M1586.63 162.84L1705.07 329.486C1727.51 361.061 1720.11 404.851 1688.54 427.292L1521.89 545.737C1490.32 568.177 1446.53 560.775 1424.08 529.199L1305.64 362.553C1283.2 330.979 1290.6 287.19 1322.18 264.747L1488.82 146.304C1520.4 123.862 1564.19 131.266 1586.63 162.84Z" stroke="#E11628" stroke-width="1.35658"/>
</g>
</g>
</svg>
